<svg width="18" height="12" viewBox="0 0 18 12" fill="none" xmlns="http://www.w3.org/2000/svg">
<path fill-rule="evenodd" clip-rule="evenodd" d="M17.731 0.412087C17.9242 0.63797 18.0197 0.931357 17.9966 1.2277C17.9735 1.52404 17.8336 1.79906 17.6077 1.99224L6.86038 11.2154C6.30608 11.6879 5.47637 11.6333 4.98884 11.0921L0.293203 5.92582C0.0229471 5.62954 -0.0687161 5.21159 0.0527427 4.8294C0.174201 4.44721 0.490329 4.15885 0.882045 4.07294C1.27376 3.98703 1.68155 4.11663 1.95181 4.41291L6.0647 8.89562L16.1508 0.255192C16.3809 0.065901 16.6769 -0.0239537 16.9735 0.00548718C17.27 0.0349281 17.5426 0.18124 17.731 0.412087Z" fill="#74B02E"/>
</svg>
