<svg width="21" height="22" viewBox="0 0 21 22" fill="none" xmlns="http://www.w3.org/2000/svg">
<path d="M9.0542 8.58365C9.0542 8.08063 9.46198 7.67285 9.965 7.67285C10.468 7.67285 10.8758 8.08063 10.8758 8.58365V13.9756C10.8758 14.4786 10.468 14.8864 9.965 14.8864C9.46198 14.8864 9.0542 14.4786 9.0542 13.9756V8.58365Z" fill="#A02F2F"/>
<path d="M9.96503 18.1379C10.5938 18.1379 11.1035 17.6282 11.1035 16.9994C11.1035 16.3706 10.5938 15.8609 9.96503 15.8609C9.33626 15.8609 8.82654 16.3706 8.82654 16.9994C8.82654 17.6282 9.33626 18.1379 9.96503 18.1379Z" fill="#A02F2F"/>
<path fill-rule="evenodd" clip-rule="evenodd" d="M10.1381 4.02056C10.1076 3.95771 10.044 3.9178 9.97414 3.9178C9.90431 3.9178 9.84063 3.95771 9.81019 4.02056L2.40542 18.9849C2.37686 19.0416 2.37985 19.1091 2.41332 19.163C2.44679 19.2169 2.5059 19.2495 2.56936 19.2491H17.4609C17.5243 19.2495 17.5835 19.2169 17.6169 19.163C17.6504 19.1091 17.6534 19.0416 17.6248 18.9849L10.1381 4.02056ZM8.99046 1.57051C9.17498 1.19854 9.55434 0.963257 9.96956 0.963257C10.3848 0.963257 10.7641 1.19854 10.9487 1.57051L19.9109 19.4859C20.0647 19.8212 20.0389 20.2114 19.8424 20.5236C19.6459 20.8358 19.3052 21.0278 18.9364 21.0342H1.10296C0.724357 21.0373 0.3716 20.8425 0.17244 20.5205C-0.0267202 20.1985 -0.043411 19.7959 0.128412 19.4586L8.99046 1.57051Z" fill="#A02F2F"/>
</svg>
