<svg width="18" height="18" viewBox="0 0 18 18" fill="none" xmlns="http://www.w3.org/2000/svg">
<path fill-rule="evenodd" clip-rule="evenodd" d="M8.99985 0C6.61293 0 4.32376 0.948222 2.63595 2.63603C0.948142 4.32384 -5.24119e-05 6.61298 -5.24119e-05 8.9999C-0.011076 10.6721 0.45347 12.3129 1.33944 13.7311C2.22541 15.1493 3.4963 16.2864 5.00389 17.0098C5.11026 17.0618 5.22582 17.0924 5.344 17.0997C5.46217 17.107 5.58063 17.091 5.69262 17.0526C5.8046 17.0141 5.90794 16.954 5.99669 16.8756C6.08544 16.7973 6.15787 16.7022 6.20988 16.5958C6.26188 16.4895 6.29243 16.3739 6.29977 16.2557C6.30711 16.1375 6.29108 16.0191 6.25264 15.9071C6.2142 15.7951 6.15408 15.6918 6.07571 15.6031C5.99733 15.5143 5.90226 15.4418 5.79589 15.3898C4.59122 14.8148 3.57546 13.9083 2.86771 12.7766C2.15995 11.6448 1.78954 10.3347 1.79993 8.9999C1.8004 7.6144 2.20062 6.25844 2.95257 5.09475C3.70453 3.93105 4.77629 3.00905 6.03923 2.43932C7.30218 1.8696 8.70268 1.67636 10.0727 1.88282C11.4427 2.08927 12.7241 2.68666 13.7631 3.60326C14.8021 4.51986 15.5545 5.71673 15.9301 7.05035C16.3057 8.38396 16.2886 9.79766 15.8808 11.1218C15.4729 12.4459 14.6917 13.6242 13.6308 14.5154C12.5699 15.4065 11.2745 15.9726 9.89984 16.1458V10.7999C9.89984 10.5612 9.80501 10.3323 9.63623 10.1635C9.46745 9.99473 9.23854 9.89989 8.99985 9.89989C8.76116 9.89989 8.53226 9.99473 8.36347 10.1635C8.19469 10.3323 8.09986 10.5612 8.09986 10.7999V17.0998C8.09986 17.3385 8.19469 17.5674 8.36347 17.7362C8.53226 17.905 8.76116 17.9998 8.99985 17.9998C11.3868 17.9998 13.6759 17.0516 15.3638 15.3638C17.0516 13.676 17.9998 11.3868 17.9998 8.9999C17.9998 6.61298 17.0516 4.32384 15.3638 2.63603C13.6759 0.948222 11.3868 0 8.99985 0ZM11.6998 6.29993C11.6998 5.76593 11.5415 5.24394 11.2448 4.79993C10.9481 4.35592 10.5264 4.00981 10.0331 3.80546C9.53972 3.6011 8.99686 3.54764 8.47312 3.65182C7.94937 3.756 7.46829 4.01315 7.0907 4.39075C6.7131 4.76835 6.45594 5.24946 6.35176 5.7732C6.24758 6.29694 6.30105 6.83983 6.5054 7.33319C6.70976 7.82654 7.05581 8.24818 7.49982 8.54486C7.94383 8.84153 8.46585 8.9999 8.99985 8.9999C9.71593 8.9999 10.4027 8.71546 10.909 8.20912C11.4153 7.70277 11.6998 7.01601 11.6998 6.29993ZM8.09986 6.29993C8.09986 6.12193 8.15263 5.94795 8.25152 5.79995C8.35042 5.65195 8.49098 5.53656 8.65543 5.46844C8.81989 5.40032 9.00086 5.38252 9.17544 5.41725C9.35002 5.45197 9.51036 5.53769 9.63623 5.66356C9.76209 5.78942 9.84781 5.94979 9.88254 6.12437C9.91726 6.29895 9.89946 6.4799 9.83134 6.64435C9.76322 6.8088 9.64786 6.94937 9.49986 7.04826C9.35186 7.14715 9.17785 7.19992 8.99985 7.19992C8.76116 7.19992 8.53226 7.10509 8.36347 6.93631C8.19469 6.76753 8.09986 6.53862 8.09986 6.29993Z" fill="#FEAB01"/>
</svg>
