<svg width="251" height="266" viewBox="0 0 251 266" fill="none" xmlns="http://www.w3.org/2000/svg">
<mask id="path-1-inside-1" fill="white">
<path d="M0 222.207V43.252L126.043 0L251 43.252V222.748L126.043 266L0 222.207Z"/>
</mask>
<path d="M0 43.252L-164.559 -436.299L-507 -318.79L-507 43.252H0ZM0 222.207H-507V582.784L-166.396 701.124L0 222.207ZM126.043 266L-40.3524 744.917L125.731 802.621L291.881 745.111L126.043 266ZM251 222.748L416.837 701.859L758 583.77V222.748H251ZM251 43.252H758V-317.77L416.837 -435.859L251 43.252ZM126.043 0L291.881 -479.111L126.758 -536.265L-38.5158 -479.551L126.043 0ZM-507 43.252V222.207H507V43.252H-507ZM-166.396 701.124L-40.3524 744.917L292.439 -212.917L166.396 -256.71L-166.396 701.124ZM291.881 745.111L416.837 701.859L85.1625 -256.363L-39.7942 -213.111L291.881 745.111ZM758 222.748V43.252H-256V222.748H758ZM416.837 -435.859L291.881 -479.111L-39.7942 479.111L85.1625 522.363L416.837 -435.859ZM-38.5158 -479.551L-164.559 -436.299L164.559 522.803L290.602 479.551L-38.5158 -479.551Z" fill="#323745" mask="url(#path-1-inside-1)"/>
<path d="M126.003 250.705L15 211.95V53.5648L125.993 15.2914L236 53.5547V212.445L126.003 250.705Z" stroke="white" stroke-width="10"/>
<path fill-rule="evenodd" clip-rule="evenodd" d="M31 64L120 33V123L103 129V202L120 208V232L81 218V137L53 147V208L31 200V64ZM53 80L97 65V108L53 123V80Z" fill="white"/>
<path d="M155 41.5L131 33V233L155 224V160L198 177V209.5L221 201.5V64.5L198 56.5V150L188 146.5V53L164 44.5V139L155 135V41.5Z" fill="#FCA800"/>
</svg>
